<?xml version="1.0" encoding="utf-8"?>
<!-- Generator: Adobe Illustrator 24.2.0, SVG Export Plug-In . SVG Version: 6.00 Build 0)  -->
<svg version="1.1" id="Layer_1" xmlns="http://www.w3.org/2000/svg" xmlns:xlink="http://www.w3.org/1999/xlink" x="0px" y="0px"
	 viewBox="0 0 183 100" style="enable-background:new 0 0 183 100;" xml:space="preserve">
<style type="text/css">
	.st0{fill:url(#SVGID_1_);}
	.st1{fill:url(#SVGID_2_);}
	.st2{fill:url(#SVGID_3_);}
	.st3{fill:#008EC1;}
</style>
<g>
	<g>
		<g>
			<linearGradient id="SVGID_1_" gradientUnits="userSpaceOnUse" x1="4.4702" y1="56.6405" x2="65.1963" y2="2.7372">
				<stop  offset="0" style="stop-color:#08B7DF"/>
				<stop  offset="0.2528" style="stop-color:#73C3D0"/>
				<stop  offset="0.5169" style="stop-color:#D9AFD1"/>
				<stop  offset="0.7697" style="stop-color:#ED97C0"/>
				<stop  offset="1" style="stop-color:#EC79A9"/>
			</linearGradient>
			<path class="st0" d="M15.84,42.72c6.26,0.42,13.36,1.54,14.43,12.04c0.55-4.14-0.55-7.06-2.31-9.79
				c-1.89-2.93-5.83-6.33-7.16-10.2c-2.12-6.2,1.08-11.87,6.96-17.24C34.84,11.04,36.15,4.93,34.19,0
				c6.56,7.98,13.03,22.82,12.68,34.98c-0.42,14.6-7.38,24.11-16.97,26.24C18.66,63.72,1.82,57.82,0,36.99
				C1.78,44.16,9.65,42.3,15.84,42.72z"/>
			<linearGradient id="SVGID_2_" gradientUnits="userSpaceOnUse" x1="12.7023" y1="65.9132" x2="73.4351" y2="12.004">
				<stop  offset="0" style="stop-color:#08B7DF"/>
				<stop  offset="0.2528" style="stop-color:#73C3D0"/>
				<stop  offset="0.5169" style="stop-color:#D9AFD1"/>
				<stop  offset="0.7697" style="stop-color:#ED97C0"/>
				<stop  offset="1" style="stop-color:#EC79A9"/>
			</linearGradient>
			<path class="st1" d="M17.15,54.23c3.63-2.45,8.78-4.53,11.62-0.83c1.53,2.01,1.05,4.07,0.58,6.31c1.58-2.88,1.98-5.19,1.98-8.41
				c0-3.52-0.68-6.36,0.41-10.57c1.45-5.61,6.29-9.39,11.57-12.05c7.78-3.91,16.72-8.16,17.18-18.92c1.82,7.14,1.07,17.15-2.74,26.6
				c-4.89,12.15-14.87,22.51-27.86,25.65c-8.25,1.99-17.72,1.07-25.93-5.4C8.59,59.15,13.14,56.95,17.15,54.23z"/>
		</g>
		<linearGradient id="SVGID_3_" gradientUnits="userSpaceOnUse" x1="13.2309" y1="66.5047" x2="73.9605" y2="12.5985">
			<stop  offset="0" style="stop-color:#008CD1"/>
			<stop  offset="0.2528" style="stop-color:#009BB0"/>
			<stop  offset="0.5169" style="stop-color:#BE7DB1"/>
			<stop  offset="0.7697" style="stop-color:#E25E9C"/>
			<stop  offset="1" style="stop-color:#E52A7E"/>
		</linearGradient>
		<path class="st2" d="M29.91,61.22c9.58-2.13,16.54-11.65,16.97-26.24c0.08-2.5-0.15-5.12-0.6-7.77c-0.99,0.51-1.98,1-2.95,1.49
			c-5.29,2.66-10.13,6.44-11.57,12.05c-1.08,4.2-0.41,7.04-0.41,10.57c0,3.22-0.41,5.53-1.98,8.41c0.47-2.24,0.95-4.3-0.58-6.31
			c-2.83-3.7-7.99-1.62-11.62,0.83c-2.02,1.36-4.17,2.6-6.4,3.16C16.73,61.55,24.06,62.52,29.91,61.22z"/>
	</g>
	<g>
		<path class="st3" d="M34.88,65.67v23.3c0,6.35-4.53,10.97-10.26,10.97c-5.73,0-10.26-4.62-10.26-10.97
			c0-6.35,4.53-10.97,10.26-10.97c3.24,0,5.29,1.6,6.57,2.66v2c-1.82-1.91-3.78-3.06-6.57-3.06c-4.26,0-8.48,3.95-8.48,9.37
			c0,5.42,4.22,9.37,8.48,9.37c5.06,0,8.57-4.48,8.57-9.37v-23.3H34.88z"/>
		<path class="st3" d="M42.01,71.18c0.76,0,1.33,0.58,1.33,1.33c0,0.75-0.58,1.33-1.33,1.33c-0.76,0-1.33-0.58-1.33-1.33
			C40.68,71.75,41.26,71.18,42.01,71.18z M41.17,99.5V78.46h1.69V99.5H41.17z"/>
		<path class="st3" d="M50.01,92.47c0.25,3.91,3.17,6.17,7,6.17c2.76,0,6.71-0.82,6.71-4.48c0-3.58-3.62-4.11-7.24-4.85
			c-3.66-0.74-7.28-1.69-7.28-6.01c0-4.2,4.08-5.43,7.65-5.43c4.49,0,7.82,1.93,7.82,6.75H63.1c-0.04-3.83-2.72-5.39-6.26-5.39
			c-2.88,0-6.09,1.07-6.09,4.07c0,3.37,3.62,3.91,7.04,4.65c4.2,0.78,7.49,1.77,7.49,6.21c0,4.57-4.57,5.84-8.27,5.84
			c-4.82,0-8.44-2.59-8.56-7.53H50.01z"/>
		<path class="st3" d="M70.14,92.47c0.25,3.91,3.17,6.17,7,6.17c2.76,0,6.71-0.82,6.71-4.48c0-3.58-3.62-4.11-7.24-4.85
			c-3.66-0.74-7.28-1.69-7.28-6.01c0-4.2,4.07-5.43,7.66-5.43c4.49,0,7.82,1.93,7.82,6.75h-1.56c-0.04-3.83-2.71-5.39-6.26-5.39
			c-2.88,0-6.09,1.07-6.09,4.07c0,3.37,3.62,3.91,7.04,4.65c4.2,0.78,7.49,1.77,7.49,6.21c0,4.57-4.57,5.84-8.27,5.84
			c-4.82,0-8.44-2.59-8.56-7.53H70.14z"/>
		<path class="st3" d="M167.73,92.47c0.25,3.91,3.17,6.17,7,6.17c2.76,0,6.71-0.82,6.71-4.48c0-3.58-3.62-4.11-7.24-4.85
			c-3.66-0.74-7.28-1.69-7.28-6.01c0-4.2,4.08-5.43,7.66-5.43c4.49,0,7.82,1.93,7.82,6.75h-1.56c-0.04-3.83-2.72-5.39-6.26-5.39
			c-2.88,0-6.09,1.07-6.09,4.07c0,3.37,3.62,3.91,7.04,4.65c4.2,0.78,7.49,1.77,7.49,6.21c0,4.57-4.57,5.84-8.27,5.84
			c-4.82,0-8.44-2.59-8.56-7.53H167.73z"/>
		<g>
			<path class="st3" d="M160.29,71.18c0.75,0,1.33,0.58,1.33,1.33c0,0.75-0.58,1.33-1.33,1.33s-1.33-0.58-1.33-1.33
				C158.96,71.75,159.54,71.18,160.29,71.18z"/>
			<path class="st3" d="M136.49,71.18c0.76,0,1.33,0.58,1.33,1.33c0,0.75-0.58,1.33-1.33,1.33c-0.76,0-1.33-0.58-1.33-1.33
				C135.16,71.75,135.73,71.18,136.49,71.18z"/>
			<path class="st3" d="M149.24,65.87V92.3c0,3.9,2.55,5.81,5.13,5.81c2.55,0,5.13-1.91,5.13-5.81V78.68h1.59V92.3
				c0,4.77-3.01,7.37-6.72,7.37c-3.13,0-5.05-1.47-5.89-4.03h-0.08c-0.84,2.56-2.76,4.03-5.88,4.03c-3.72,0-6.72-2.6-6.72-7.37
				V78.68h1.59V92.3c0,3.9,2.59,5.81,5.13,5.81c2.59,0,5.13-1.91,5.13-5.81V65.87H149.24z"/>
		</g>
		<g>
			<path class="st3" d="M91.72,71.18c0.75,0,1.33,0.58,1.33,1.33c0,0.75-0.58,1.33-1.33,1.33c-0.76,0-1.33-0.58-1.33-1.33
				C90.38,71.75,90.96,71.18,91.72,71.18z"/>
			<path class="st3" d="M123.15,78.68c-3.13,0-5.05,1.47-5.89,4.03h-0.08c-0.84-2.56-2.76-4.03-5.88-4.03
				c-3.72,0-6.72,2.6-6.72,7.37l0.01,4.94c0,4.29-2.88,7.11-6.35,7.11c-3.46,0-5.79-2.82-5.79-7.11V78.68h-1.59v12.53
				c0,5.07,2.96,8.46,7.38,8.46c4.43,0,7.93-3.38,7.93-8.46l0-5.16c0-3.9,2.59-5.81,5.13-5.81c2.59,0,5.13,1.9,5.13,5.81v13.61h1.59
				V86.05c0-3.9,2.55-5.81,5.14-5.81c2.54,0,5.13,1.9,5.13,5.81v13.61h1.59V86.05C129.87,81.28,126.86,78.68,123.15,78.68z"/>
		</g>
	</g>
</g>
</svg>
